<svg width="90" height="90" fill="none" xmlns="http://www.w3.org/2000/svg"><path d="M39.87 71.4c16.966 0 30.72-13.754 30.72-30.72S56.836 9.96 39.87 9.96 9.15 23.714 9.15 40.68 22.904 71.4 39.87 71.4z" fill="#486688"/><path d="M80.49 72.55 66.82 58.87l.4-.6c8.19-12.39 6.5-29.01-4.02-39.53-5.94-5.94-13.83-9.21-22.22-9.21-8.39 0-16.29 3.27-22.22 9.21-5.94 5.94-9.21 13.83-9.21 22.22 0 8.39 3.27 16.29 9.21 22.22 5.94 5.94 13.83 9.2 22.22 9.2 6.19 0 12.17-1.79 17.31-5.19l.6-.4 13.69 13.69c.75.79 1.49 1.17 2.26 1.17 1.15 0 2.51-.82 4.26-2.57 1.77-1.77 2.59-3.13 2.57-4.29 0-.76-.39-1.49-1.18-2.25v.01zm-39.52-7.48c-6.66 0-12.68-2.7-17.04-7.06a24.035 24.035 0 0 1-7.06-17.04c0-13.31 10.79-24.1 24.1-24.1 6.66 0 12.68 2.7 17.04 7.06a24.035 24.035 0 0 1 7.06 17.04c0 13.31-10.79 24.1-24.1 24.1z" fill="#324660"/><path d="M58.95 69.31 74.6 84.96c1.09 1.14 2.17 1.63 3.27 1.63 1.79 0 3.61-1.29 5.51-3.2 3.08-3.08 4.55-5.94 1.57-8.79L69.3 58.95" fill="#4A4743"/><path d="m67.9 60.36 15.68 15.68c1 .96 1.01 1.6 1.01 1.81.01.99-.87 2.38-2.61 4.12-1.73 1.73-3.11 2.61-4.1 2.61-.21 0-.87 0-1.86-1.04L60.37 67.89" fill="#807B76"/><path d="m74.3 63.93-4.98-4.98-10.36 10.36 4.98 4.98c4.03-2.82 7.54-6.33 10.36-10.36z" fill="#4A4743"/><path d="M27.97 13.32c-8.45 0-15.29 6.85-15.29 15.29l-1.72 12.07h28.92V10.35l-11.9 2.96-.01.01zM39.87 40.68V68.9l11.9-.85c8.45 0 15.29-6.85 15.29-15.29l2.65-12.07H39.87v-.01z" fill="#AED0F0"/><path d="M10.96 40.68h5.92c.15-12.81 10.29-23.22 22.99-23.8v-6.53l-11.9 2.96c-.78 0-1.54.08-2.29.19a31.43 31.43 0 0 0-6.92 5.23c-2.49 2.49-4.5 5.32-6 8.39-.05.49-.07.98-.07 1.48l-1.72 12.07-.01.01zM40.98 65.07c-.37 0-.74-.01-1.11-.03v3.86l11.9-.85c8.45 0 15.29-6.85 15.29-15.29l2.65-12.07h-4.64v.28c0 13.31-10.79 24.1-24.1 24.1h.01z" fill="#749BBF"/><path d="M39.87 3.41c-20.13 0-36.46 16.33-36.46 36.46 0 20.13 16.32 36.46 36.46 36.46s36.46-16.32 36.46-36.46S60.01 3.41 39.87 3.41zm0 65.49c-16.03 0-29.03-13-29.03-29.03s13-29.03 29.03-29.03 29.03 13 29.03 29.03-13 29.03-29.03 29.03z" fill="#B3ACA8"/><path d="M39.87 5.41c-19.03 0-34.46 15.43-34.46 34.46s15.43 34.46 34.46 34.46S74.33 58.9 74.33 39.87 58.9 5.41 39.87 5.41zm0 61.65c-15.02 0-27.2-12.18-27.2-27.2s12.18-27.2 27.2-27.2 27.2 12.18 27.2 27.2-12.18 27.2-27.2 27.2z" fill="#D1CCC5"/><path d="M12.68 39.87c0-15.02 12.18-27.2 27.2-27.2 4.88 0 9.46 1.29 13.42 3.54.55-2.51.92-5.05 1.08-7.61-4.41-2.05-9.32-3.2-14.5-3.2-19.04.01-34.47 15.44-34.47 34.47 0 5.47 1.28 10.63 3.55 15.23 2.55-.22 5.09-.63 7.58-1.25a27.121 27.121 0 0 1-3.87-13.98h.01z" fill="#E8E6E1"/></svg>