<svg width="90" height="90" fill="none" xmlns="http://www.w3.org/2000/svg"><path d="M5 10.56v68.88A5.56 5.56 0 0 0 10.56 85h68.88A5.56 5.56 0 0 0 85 79.44V26.6L63.4 5H10.56A5.56 5.56 0 0 0 5 10.56z" fill="#E8E6E1"/><path d="M66.12 7.72v17.84L85 36.57V26.6L66.12 7.72z" fill="#D1CCC5" style="mix-blend-mode:multiply" opacity=".4"/><path d="M85 26.6 63.4 5v15.55c0 3.34 2.7 6.04 6.04 6.04h15.55l.01.01z" fill="#fff"/><path d="M76.51 32.06H50.39v26.28h26.12V32.06z" fill="#45753C"/><path d="M42.9 32.06H14.27v9.52H42.9v-9.52zM42.9 48.82H14.27v9.52H42.9v-9.52z" fill="#B3ACA8"/><path d="M56.08 15.3H14.27v9.52h41.81V15.3z" fill="#807B76"/><path d="M76.5 65.58H14.27v9.52H76.5v-9.52z" fill="#B3ACA8"/><path d="M63.45 32.06H50.39V45.2h13.06V32.06zM76.5 45.2H63.44v13.14H76.5V45.2z" fill="#81B64C"/></svg>