<svg width="90" height="90" fill="none" xmlns="http://www.w3.org/2000/svg"><g clip-path="url(#a)"><path d="M75.23 77.73c0 4-3.27 7.27-7.27 7.27H17.27c-4 0-7.27-3.27-7.27-7.27V12.27c0-4 3.27-7.27 7.27-7.27h50.85c4 0 7.27 3.27 7.27 7.27l-.16 65.45v.01z" fill="#E8E6E1"/><path d="M67.69 28.01H39.35a.26.26 0 0 0-.26.26v3.24c0 .144.116.26.26.26h28.34a.26.26 0 0 0 .26-.26v-3.24a.26.26 0 0 0-.26-.26zM67.69 35.54H17.53a.26.26 0 0 0-.26.26v3.25c0 .144.116.26.26.26h50.16a.26.26 0 0 0 .26-.26V35.8a.26.26 0 0 0-.26-.26zM67.69 42.94H17.53a.26.26 0 0 0-.26.26v3.24c0 .144.116.26.26.26h50.16a.26.26 0 0 0 .26-.26V43.2a.26.26 0 0 0-.26-.26zM67.69 13.21H39.35a.26.26 0 0 0-.26.26v3.25c0 .144.116.26.26.26h28.34a.26.26 0 0 0 .26-.26v-3.25a.26.26 0 0 0-.26-.26zM67.69 20.62H39.35a.26.26 0 0 0-.26.26v3.24c0 .144.116.26.26.26h28.34a.26.26 0 0 0 .26-.26v-3.24a.26.26 0 0 0-.26-.26zM67.69 50.47H17.53a.26.26 0 0 0-.26.26v3.25c0 .144.116.26.26.26h50.16a.26.26 0 0 0 .26-.26v-3.25a.26.26 0 0 0-.26-.26zM67.69 57.87H17.53a.26.26 0 0 0-.26.26v3.24c0 .144.116.26.26.26h50.16a.26.26 0 0 0 .26-.26v-3.24a.26.26 0 0 0-.26-.26zM67.69 65.4H17.53a.26.26 0 0 0-.26.26v3.24c0 .144.116.26.26.26h50.16a.26.26 0 0 0 .26-.26v-3.24a.26.26 0 0 0-.26-.26zM17.27 76.43c0 .14.12.26.26.26h10.82c.14 0 .3-.11.36-.24l1.38-3.29c.05-.13-.02-.24-.16-.24h-12.4c-.14 0-.26.12-.26.26v3.25z" fill="#B3ACA8"/><path d="M27.76 13.22c.88 0 1.69.08 2.41.23.73.16 1.35.41 1.87.76.52.35.92.83 1.21 1.42.29.59.43 1.31.43 2.18 0 .93-.21 1.71-.64 2.34-.43.62-1.05 1.13-1.88 1.53 1.14.33 1.99.91 2.56 1.73.56.82.84 1.81.84 2.97 0 .93-.18 1.74-.54 2.43-.36.69-.85 1.24-1.47 1.68-.61.43-1.31.75-2.1.96-.79.21-1.6.31-2.43.31h-8.98V13.22h8.72zm-.52 7.5c.73 0 1.32-.17 1.79-.52.47-.34.7-.91.7-1.69 0-.43-.08-.78-.23-1.06-.16-.28-.36-.49-.62-.65-.26-.16-.56-.26-.9-.33-.34-.06-.69-.09-1.05-.09h-3.81v4.34h4.13-.01zm.23 7.86c.4 0 .78-.04 1.14-.12.36-.08.68-.21.96-.39.28-.18.5-.43.66-.74.17-.31.25-.71.25-1.19 0-.95-.27-1.63-.81-2.04-.54-.4-1.25-.61-2.13-.61H23.1v5.09h4.37z" fill="#807B76"/><path d="m28.37 76.69 4.76-2.51 42.11-40.49-.01 20.96L45.8 76.69H28.37z" fill="#D1CCC5"/><path d="m57.79 50.47-3.92 3.77h14.08v-3.77H57.79zM46.18 61.63h19.73l2.04-1.53v-2.23H50.09l-3.91 3.76zM38.35 69.16h17.51l5.02-3.76H42.26l-3.91 3.76z" fill="#807B76"/><path d="M28.37 76.69h.24l.07-.16-.31.16z" fill="#9881F2"/><path d="m37.92 67.14-6.12-6.12-3.43 15.67 15.67-3.43-6.12-6.12z" fill="#FBF3D8"/><path d="m37.92 67.14-9.55 9.55 15.67-3.43-6.12-6.12z" fill="#FADAAE"/><path d="M85 32.3c1.42-1.42 2.84-2.84 4.27-4.26.17-.17.31-.36.42-.55a2.576 2.576 0 0 0-.04-2.55c-.11-.18-.24-.35-.4-.51l-8.63-8.63a2.51 2.51 0 0 0-.65-.47c-.09-.04-.19-.09-.28-.12-.28-.11-.57-.15-.87-.16-.43 0-.86.11-1.24.33-.2.11-.39.25-.56.42-1.42 1.42-2.84 2.84-4.27 4.26L84.99 32.3H85z" fill="#FFAF95"/><path d="M78.88 26.18 85 32.3c1.42-1.42 2.84-2.84 4.27-4.26.17-.17.31-.36.42-.55a2.576 2.576 0 0 0-.04-2.55c-.11-.18-.24-.35-.4-.51l-4.3-4.3" fill="#FF7259"/><path d="m72.758 20.052-4.016 4.016 12.24 12.24 4.016-4.016-12.24-12.24z" fill="#fff"/><path d="M78.877 26.184 74.861 30.2l6.116 6.116 4.016-4.016-6.116-6.116z" fill="#B3ACA8"/><path d="M68.74 24.073 31.8 61.013l12.24 12.24 36.94-36.94-12.24-12.24z" fill="#F7C631"/><path d="M74.858 30.195 37.92 67.135l6.117 6.116 36.939-36.94-6.117-6.116z" fill="#CF8D1B"/></g><defs><clipPath id="a"><path fill="#fff" d="M0 0h90v90H0z"/></clipPath></defs></svg>