<svg width="90" height="90" fill="none" xmlns="http://www.w3.org/2000/svg"><g clip-path="url(#a)"><path d="M81.17 3.03H8.83C3.96 3.03 0 6.99 0 11.87v47.78c0 4.87 3.96 8.83 8.83 8.83h72.34c4.88 0 8.83-3.96 8.83-8.83V11.87c0-4.88-3.96-8.84-8.83-8.84z" fill="#807B76"/><path d="M81.82 11.22H8.18v49.09h73.64V11.22z" fill="#AED0F0"/><path d="M81.82 11.22C34.9 25.72 8.18 60.31 8.18 60.31V11.22h73.64z" fill="#E6F7FF"/><path d="M60.2 67.25c-7.02-5.35-7.86-10-7.96-12.93h5.1l.57-1.05c.89-1.65 1.29-3.17 1.29-4.92v-1.08l-5.52-3.64c1.69-2.02 2.65-4.59 2.65-7.27 0-4.61-2.75-8.71-7-10.47l-.8-.4-.13.06c-1.09-.34-2.23-.52-3.38-.52-6.24 0-11.32 5.08-11.32 11.33 0 2.68.96 5.25 2.65 7.27l-5.52 3.64v1.08c0 1.75.4 3.27 1.29 4.92l.57 1.05h5.1v.1c-.11 2.98-1.05 7.56-7.96 12.83-2.23 1.7-3.95 4.11-5 6.97l-.11.28c-.02.07-.04.14-.05.18l-.6 1.78.09.04c-.34 1.5-.52 3.08-.52 4.7 0 3.82 7.2 5.76 21.4 5.76s21.4-1.94 21.4-5.76c0-5.87-2.26-10.96-6.2-13.96l-.04.01z" fill="#5D9948"/><path d="M44.66 72.17c1.05-4.78 1.98-9.87 2.55-12.92.71-3.81-5.07-4.49-7.44-4.84-.11 3.25-1.02 8.53-8.75 14.42-2.09 1.59-3.64 3.86-4.54 6.61 2.09 1.02 4.88 1.62 9.17 1.62 2.76 0 7.86.33 9.01-4.9v.01zM48.71 52.32c.91-2.38.79-3.97.79-3.97l-3.81-4.43c4.05-1.73 6.49-4.98 6.49-8.77 0-3.02-1.44-5.71-3.67-7.41a9.317 9.317 0 0 0-12.84 8.63c0 3.11 1.52 5.86 3.86 7.55l-6.73 4.43c0 1.49.35 2.68 1.05 3.97h14.86z" fill="#81B64C"/><path d="M44.47 28.94c5.38.83-2.48 7.08-4.96 6.78-2.36-.28-.09-7.56 4.96-6.78z" fill="#B2E068"/></g><defs><clipPath id="a"><path fill="#fff" d="M0 0h90v90H0z"/></clipPath></defs></svg>