<svg width="90" height="90" fill="none" xmlns="http://www.w3.org/2000/svg"><g clip-path="url(#a)"><path d="M85.18 15.65H4.82A4.82 4.82 0 0 0 0 20.47v60.61a4.82 4.82 0 0 0 4.82 4.82h80.36A4.82 4.82 0 0 0 90 81.08V20.47a4.82 4.82 0 0 0-4.82-4.82z" fill="#9D6C3E"/><path d="M49.82 13.52c-2.65-.01-6.99-.01-9.64 0l-31.11.16c-2.65.01-4.82 2.19-4.82 4.85v58.32c0 2.65 2.17 4.81 4.82 4.8l31.11-.16c2.65-.01 6.99-.01 9.64 0l31.11.16c2.65.01 4.82-2.15 4.82-4.8V18.52c0-2.65-2.17-4.83-4.82-4.85l-31.11-.16v.01z" fill="#B3ACA8"/><path d="M49.82 10.1c-2.65-.01-6.99-.01-9.64 0l-31.11.16c-2.65.01-4.82 2.19-4.82 4.85v57.65c0 2.65 2.17 4.81 4.82 4.8l31.11-.16c2.65-.01 6.99-.01 9.64 0l31.11.16c2.65.01 4.82-2.15 4.82-4.8V15.1c0-2.65-2.17-4.83-4.82-4.85l-31.11-.16v.01z" fill="#D1CCC5"/><path d="m45 77.37 35.93.18c2.65.01 4.82-2.15 4.82-4.8V15.1c0-2.65-2.17-4.83-4.82-4.85L45 10.07" fill="#D1CCC5"/><path d="M9.42 68.29c0 2.65 2.15 5.08 4.79 5.39l30.8 3.69V10.08L14.09 4.24c-2.57-.66-4.67.98-4.67 3.63v60.42z" fill="#E8E6E1"/><path d="M80.58 68.29c0 2.65-2.15 5.08-4.79 5.39l-30.8 3.69V10.08L75.9 4.24c2.57-.66 4.67.98 4.67 3.63v60.42h.01z" fill="#E8E6E1"/><path d="m39.27 39.92-23.56-3.87V12.49l23.56 3.86v23.57z" fill="#45753C"/><path d="m21.6 19.35-5.89-.97v-5.89l5.89.97v5.89z" fill="#81B64C"/><path d="m27.49 26.2-5.89-.96v-5.89l5.89.96v5.89zM33.38 21.28l-5.89-.97v-5.89l5.89.97v5.89zM39.27 28.14l-5.89-.97v-5.89l5.89.96v5.9z" fill="#81B64C"/><path d="m21.6 31.13-5.89-.97v-5.89l5.89.97v5.89zM27.49 37.99l-5.89-.97v-5.89l5.89.96v5.9zM33.38 33.06l-5.89-.97V26.2l5.89.97v5.89zM39.27 39.92l-5.89-.97v-5.89l5.89.97v5.89z" fill="#81B64C"/><path d="M39.27 50.39c0 .58-.47.98-1.05.89L16.8 47.83c-.57-.09-1.05-.64-1.05-1.23v-2.11c0-.58.47-.98 1.05-.89l21.42 3.45c.57.09 1.05.64 1.05 1.23v2.11zM39.27 59.89c0 .58-.47.98-1.05.89L16.8 57.33c-.57-.09-1.05-.64-1.05-1.23v-2.12c0-.58.47-.98 1.05-.89l21.42 3.45c.57.09 1.05.64 1.05 1.23v2.12zM39.27 69.38c0 .58-.47.98-1.05.89L16.8 66.82c-.57-.09-1.05-.64-1.05-1.23v-2.12c0-.58.47-.98 1.05-.89l21.42 3.45c.57.09 1.05.64 1.05 1.23v2.12zM50.73 59.89c0 .58.47.98 1.05.89l21.42-3.45c.57-.09 1.05-.64 1.05-1.23v-2.12c0-.58-.47-.98-1.05-.89l-21.42 3.45c-.57.09-1.05.64-1.05 1.23v2.12zM50.73 69.38c0 .58.47.98 1.05.89l21.42-3.45c.57-.09 1.05-.64 1.05-1.23v-2.12c0-.58-.47-.98-1.05-.89l-21.42 3.45c-.57.09-1.05.64-1.05 1.23v2.12zM50.73 50.39c0 .58.47.98 1.05.89l21.42-3.45c.57-.09 1.05-.64 1.05-1.23v-2.12c0-.58-.47-.98-1.05-.89l-21.42 3.45c-.57.09-1.05.64-1.05 1.23v2.12zM50.73 30.4c0 .58.47.98 1.05.89l21.42-3.45c.57-.09 1.05-.64 1.05-1.23v-2.12c0-.58-.47-.98-1.05-.89l-21.42 3.45c-.57.09-1.05.64-1.05 1.23v2.12zM50.73 39.89c0 .58.47.98 1.05.89l21.42-3.45c.57-.09 1.05-.64 1.05-1.23v-2.12c0-.58-.47-.98-1.05-.89l-21.42 3.45c-.57.09-1.05.64-1.05 1.23v2.12zM50.73 20.9c0 .58.47.98 1.05.89l21.42-3.45c.57-.09 1.05-.64 1.05-1.23v-2.12c0-.58-.47-.98-1.05-.89l-21.42 3.45c-.57.09-1.05.64-1.05 1.23v2.12z" fill="#B3ACA8"/><path d="m51.63 51.08 6.62 3.8-.02-48.91c-5.68 1.45-13.22 3.37-13.22 3.37l.02 48.35 6.61-6.62-.01.01z" fill="#FA412D"/></g><defs><clipPath id="a"><path fill="#fff" d="M0 0h90v90H0z"/></clipPath></defs></svg>