<svg width="90" height="90" fill="none" xmlns="http://www.w3.org/2000/svg"><path d="M45 18.06H12.27V5.13H45v12.93z" fill="#D1CCC5"/><path d="M77.73 18.07H45V5.13h32.73v12.94z" fill="#E3AA24"/><path d="M81.36 12.14H8.64A3.64 3.64 0 0 0 5 15.78v65.45a3.64 3.64 0 0 0 3.64 3.64h72.72A3.64 3.64 0 0 0 85 81.23V15.78a3.64 3.64 0 0 0-3.64-3.64z" fill="#4A4743"/><path d="M77.73 66.11c0 4.21-4.21 4.21-4.21 4.21H16.48s-4.21 0-4.21-4.21V30.89s0-4.21 4.21-4.21h57.03c4.21 0 4.21 4.21 4.21 4.21v35.22h.01z" fill="#383532"/><path d="M70.46 33.96H19.55v29.09h50.91V33.96z" fill="#D1CCC5"/><path d="M30.73 58.38c-1.67 0-2.87-.47-3.59-1.42-.72-.95-1.08-2.34-1.08-4.17h2.55c0 .39.01.73.04 1.04.03.31.09.62.17.95.08.33.21.6.36.82.15.22.36.4.63.54s.59.21.95.21c.29 0 .55-.04.78-.12.22-.08.41-.19.57-.32.16-.13.29-.31.4-.55.11-.23.19-.46.25-.69.06-.22.1-.51.14-.87.04-.35.06-.67.06-.96 0-.29.01-.65.01-1.08 0-.58-.01-1.06-.04-1.45-.03-.38-.08-.76-.17-1.13-.08-.37-.21-.66-.37-.87-.16-.21-.37-.38-.63-.51s-.58-.19-.96-.19c-.49 0-.92.15-1.29.46-.37.31-.66.68-.85 1.13h-2.17V38.89h8.31v2.53h-6.01l-.15 5.34c.67-.71 1.6-1.07 2.78-1.07.76 0 1.41.14 1.95.42.54.28.97.68 1.27 1.21.31.53.53 1.12.67 1.79.14.67.21 1.43.21 2.29 0 .86-.04 1.58-.13 2.25-.09.67-.24 1.31-.46 1.91-.22.6-.51 1.1-.87 1.51-.36.4-.82.72-1.38.95-.56.23-1.21.35-1.95.35v.01zM37.71 44.86v-2.72h2.57v2.72h-2.57zm0 7.58v-2.71h2.57v2.71h-2.57zM47.47 58.39c-1.57 0-2.76-.52-3.56-1.55-.8-1.04-1.2-2.42-1.2-4.15V44.4c0-1.77.39-3.17 1.17-4.17.78-1.01 1.98-1.51 3.59-1.51 1.61 0 2.8.51 3.59 1.52s1.19 2.4 1.19 4.17v8.29c0 1.74-.4 3.13-1.2 4.16-.8 1.03-1.99 1.54-3.58 1.54v-.01zm0-2.09c1.47 0 2.21-1.19 2.21-3.58v-8.34c0-.52-.03-.97-.09-1.37-.06-.4-.17-.76-.32-1.12-.16-.35-.38-.62-.69-.81-.31-.19-.67-.29-1.12-.29-.45 0-.81.1-1.12.29-.31.19-.53.46-.69.81-.15.35-.26.72-.32 1.12-.06.39-.09.85-.09 1.37v8.34c0 2.39.74 3.58 2.21 3.58h.02zM59.16 58.39c-1.57 0-2.76-.52-3.56-1.55-.8-1.04-1.2-2.42-1.2-4.15V44.4c0-1.77.39-3.17 1.17-4.17.78-1.01 1.98-1.51 3.59-1.51 1.61 0 2.8.51 3.59 1.52s1.19 2.4 1.19 4.17v8.29c0 1.74-.4 3.13-1.2 4.16-.8 1.03-1.99 1.54-3.58 1.54v-.01zm0-2.09c1.47 0 2.21-1.19 2.21-3.58v-8.34c0-.52-.03-.97-.09-1.37-.06-.4-.17-.76-.32-1.12-.16-.35-.38-.62-.69-.81-.31-.19-.67-.29-1.12-.29-.45 0-.81.1-1.12.29-.31.19-.53.46-.69.81-.15.35-.26.72-.32 1.12-.06.39-.09.85-.09 1.37v8.34c0 2.39.74 3.58 2.21 3.58h.02z" fill="#383532"/></svg>