<svg width="90" height="90" fill="none" xmlns="http://www.w3.org/2000/svg"><g clip-path="url(#a)"><path d="M0 0h4.42c1.29 0 2.33 1.05 2.33 2.34v9.91c0 1.29-1.05 2.34-2.34 2.34H0V0z" fill="#9D6C3E"/><path d="M0 0h4.76c1.1 0 1.99.89 1.99 1.99v6.59c0 1.1-.89 1.99-1.99 1.99H0V0z" fill="#CA9350"/><path d="M90 14.59h-4.42c-1.29 0-2.34-1.05-2.34-2.34V2.34c0-1.29 1.05-2.34 2.34-2.34H90v14.59z" fill="#9D6C3E"/><path d="M90 10.57h-4.76c-1.1 0-1.99-.89-1.99-1.99V1.99c0-1.1.89-1.99 1.99-1.99H90v10.57zM83.24 3.26H6.75v4.03h76.49V3.26z" fill="#CA9350"/><path d="M83.24 7.3H6.75v4.03h76.49V7.3z" fill="#9D6C3E"/><path d="M72.95 2.2v14.92h-55.9V2.2H6.75V90L45 82.57 83.25 90V2.2h-10.3z" fill="#81B64C"/><path d="M72.95 17.12H45v65.45L83.25 90V2.2h-10.3v14.92z" fill="#5D9948"/><path d="M72.95 26.68h-55.9v50.48L45 72.64l27.95 4.52V26.68z" fill="#5D9948"/><mask id="b" style="mask-type:luminance" maskUnits="userSpaceOnUse" x="17" y="26" width="56" height="52"><path d="M72.95 26.68h-55.9v50.48L45 72.64l27.95 4.52V26.68z" fill="#fff"/></mask><g mask="url(#b)"><path d="M45 26.68h27.95v50.48L45 72.64V26.68z" fill="#45753C"/></g><path d="M55.93 58.97c-4.85-3.07-5.78-6.78-6.07-8.78h3.28s1.21-1.63 1.21-3.43v-.71l-3.71-2.43c1.5-1.5 2.43-3.57 2.43-5.78 0-4.43-3.64-8-8.07-8s-8.07 3.57-8.07 8c0 2.21.93 4.28 2.43 5.78l-3.71 2.43v.71c0 1.71 1.21 3.43 1.21 3.43h3.28c-.21 2-1.21 5.71-6.07 8.78-2.78 1.78-4.35 5.07-4.35 9.07 0 .71.48 1.22 1.29 1.29.81.07 6.51.3 13.99.3s13.25-.21 14.06-.3c.81-.09 1.29-.58 1.29-1.29 0-4-1.64-7.28-4.43-9.07h.01z" fill="#E8E6E1"/><path d="m39.37 43.62-3.71 2.43v.02l3.21.02c.17-1.17.48-2.44.51-2.46l-.01-.01zM36.8 60.15c2.19-1.6 2.66-6.54 2.72-7.36-.74 1.9-2.26 4.17-5.43 6.18-2.78 1.78-4.35 5.07-4.35 9.07 1.38-4.55 3.46-5.25 7.07-7.89h-.01z" fill="#fff"/><path d="M50.39 57.77c2.54 2.38 6.31 3.17 7.89 3.4a8.82 8.82 0 0 0-2.35-2.21c-4.85-3.07-5.78-6.78-6.07-8.78h3.28s1.21-1.63 1.21-3.43v-.71l-3.71-2.43c1.5-1.5 2.43-3.57 2.43-5.78 0-3.35-2.08-6.2-5.01-7.4 2.73 1.66 4.66 6.37 2.15 9.93-1.87 2.65-5.53 3.28-5.53 3.28h4.49s2.21 3.47-.73 5.38l-12.2.02c.31.67.63 1.12.63 1.13h6s4.11 4.39 7.52 7.59v.01z" fill="#B3ACA8"/></g><defs><clipPath id="a"><path fill="#fff" d="M0 0h90v90H0z"/></clipPath></defs></svg>