<svg width="90" height="90" fill="none" xmlns="http://www.w3.org/2000/svg"><path d="m89.93 13.3-.17-2.8H69.93V5H20.08v5.51H.23l-.16 2.78v.95c0 2.31.22 8.36 3.06 14.41 1.44 3.01 3.6 6.03 6.81 8.29 3.14 2.21 7.25 3.58 12.18 3.65a25.033 25.033 0 0 0 15.96 14.07v8.37c-.11 7.6-6.28 13.73-13.92 13.73h-.86V85h43.3v-8.24h-.87c-7.68 0-13.91-6.23-13.91-13.91V54.7c7.24-2.05 13.15-7.29 16.1-14.11 4.93-.06 9.04-1.44 12.18-3.65 4.84-3.41 7.24-8.43 8.49-12.79 1.24-4.39 1.38-8.17 1.38-9.91v-.94h-.04zM13.9 31.29c-3.02-2.1-4.82-5.54-5.81-9.04-.57-1.97-.86-3.78-.99-4.84h12.98v13.3c0 .97.06 1.92.17 2.84-2.71-.3-4.72-1.14-6.34-2.26h-.01zm66.73-5.61c-1.04 2.23-2.5 4.19-4.53 5.61-1.61 1.12-3.62 1.96-6.33 2.26.11-.92.17-1.87.17-2.84v-13.3h12.98c-.24 1.96-.83 5.28-2.28 8.27h-.01z" fill="#FED859"/><path d="m89.93 13.3-.17-2.8H69.93V5H20.08v5.51H.23l-.16 2.78v.95c0 2.31.22 8.36 3.06 14.41 1.44 3.01 3.6 6.03 6.81 8.29 3.14 2.21 7.25 3.58 12.18 3.65a25.033 25.033 0 0 0 15.96 14.07v8.37c-.11 7.6-6.28 13.73-13.92 13.73h-.86V85h43.3v-8.24h-.87c-7.68 0-13.91-6.23-13.91-13.91V54.7c7.24-2.05 13.15-7.29 16.1-14.11 4.93-.06 9.04-1.44 12.18-3.65 4.84-3.41 7.24-8.43 8.49-12.79 1.24-4.39 1.38-8.17 1.38-9.91v-.94h-.04zM13.9 31.29c-3.02-2.1-4.82-5.54-5.81-9.04-.57-1.97-.86-3.78-.99-4.84h12.98v13.3c0 .97.06 1.92.17 2.84-2.71-.3-4.72-1.14-6.34-2.26h-.01zm66.73-5.61c-1.04 2.23-2.5 4.19-4.53 5.61-1.61 1.12-3.62 1.96-6.33 2.26.11-.92.17-1.87.17-2.84v-13.3h12.98c-.24 1.96-.83 5.28-2.28 8.27h-.01z" fill="#F7C631"/><path d="M38.06 54.66v8.37c-.11 7.6-6.28 13.73-13.92 13.73h-.86V85h43.3v-8.24h-.87c-7.68 0-13.91-6.23-13.91-13.91V54.7l-13.74-.04z" fill="#E3AA24"/><path d="M38.06 57.03v6c-.11 7.6-6.28 13.73-13.92 13.73h-.86V85h43.3v-8.24h-.87c-19.68 0-27.64-19.73-27.64-19.73h-.01z" fill="#F7C631"/><path d="M67.9 40.6c4.93-.06 9.04-1.44 12.18-3.65 4.84-3.41 7.24-8.43 8.49-12.79 1.24-4.39 1.38-8.17 1.38-9.91v-.94l-.17-2.8H69.95v6.92h12.98c-.24 1.96-.83 5.28-2.28 8.27-1.04 2.23-2.5 4.19-4.53 5.61-1.61 1.12-3.62 1.96-6.33 2.26l-1.86 7.04-.03-.01zM20.24 33.56c-2.71-.3-4.74-1.14-6.33-2.26-2.03-1.42-3.49-3.38-4.54-5.61-1.45-2.99-2.05-6.31-2.28-8.27h12.97v-6.91H.23l-.16 2.81v.93c0 1.74.14 5.52 1.38 9.91 1.24 4.37 3.65 9.38 8.49 12.8 3.14 2.2 7.24 3.58 12.17 3.64l-1.86-7.05-.01.01z" fill="#E3AA24"/><path d="M22.11 40.6c22.86 0 22.9-35.31 22.9-35.6H20.08v25.71c0 .97-.03 1.55.17 2.84.78 5.01 1.87 7.04 1.87 7.04l-.01.01z" fill="#FCE26A"/></svg>