<svg width="90" height="90" fill="none" xmlns="http://www.w3.org/2000/svg"><g clip-path="url(#a)"><path d="m81.05 36.66 6.75-5.56-8.73-.53c-6.79-.41-11.51-6.92-9.81-13.5l2.19-8.47-7.38 4.7c-5.73 3.65-13.38 1.17-15.87-5.16L44.99 0l-3.21 8.14c-2.49 6.33-10.13 8.81-15.87 5.16l-7.38-4.7 2.19 8.47c1.7 6.58-3.02 13.08-9.81 13.5l-8.73.53 6.75 5.56c5.25 4.32 5.25 12.36 0 16.69l-6.75 5.56 8.73.53c6.79.42 11.51 6.92 9.81 13.5l-2.19 8.47 7.38-4.7c5.73-3.65 13.38-1.17 15.87 5.16l3.21 8.14 3.21-8.14c2.49-6.33 10.13-8.81 15.87-5.16l7.38 4.7-2.19-8.47c-1.7-6.58 3.02-13.08 9.81-13.5l8.73-.53-6.75-5.56c-5.25-4.32-5.25-12.36 0-16.69zM45 72.1c-14.96 0-27.1-12.13-27.1-27.1S30.03 17.9 45 17.9 72.1 30.03 72.1 45 59.97 72.1 45 72.1z" fill="#F7C631"/><path d="M46.44 68.174c12.799-.796 22.529-11.818 21.733-24.617-.797-12.8-11.818-22.53-24.617-21.733-12.8.796-22.53 11.817-21.734 24.617.797 12.8 11.818 22.53 24.617 21.733z" fill="#F7C631"/><path d="M31.06 59.42c-7.86-7.86-7.86-20.65 0-28.51 7.86-7.86 20.65-7.86 28.51 0 7.86 7.86-20.65 36.37-28.51 28.51z" fill="#FCE26A"/></g><defs><clipPath id="a"><path fill="#fff" d="M0 0h90v90H0z"/></clipPath></defs></svg>