<svg width="90" height="90" fill="none" xmlns="http://www.w3.org/2000/svg"><g clip-path="url(#a)"><path d="M82.84 78.25C87.29 73.84 90 68.09 90 61.78c0-13.86-13.01-25.1-29.06-25.1-16.05 0-29.07 11.23-29.07 25.1 0 13.87 13.01 25.12 29.07 25.12 4.72 0 9.16-.99 13.1-2.72 4.84 1.96 10.28 2.95 15.96 2.72-2.96-2.4-5.35-5.34-7.16-8.64v-.01z" fill="#B3ACA8"/><path d="M79.39 42.39c-5.02-3.57-11.44-5.71-18.45-5.71-16.06 0-29.07 11.23-29.07 25.1 0 3.85 1.04 7.49 2.83 10.75.42.01.83.06 1.25.06 21.3 0 39.07-12.93 43.44-30.2z" fill="#807B76"/><path d="M35.96 3.07C16.1 3.07 0 16.98 0 34.14c0 8.94 4.39 16.97 11.38 22.64-1.78 4.81-4.82 8.96-8.81 12.19 7.97.33 15.47-1.72 21.48-5.55 3.73 1.14 7.73 1.78 11.91 1.78 19.87 0 35.98-13.91 35.98-31.07S55.83 3.07 35.96 3.07z" fill="#E8E6E1"/><path d="M53.76 11.35c-4.92-3.23-11.19-4.72-17.79-4.72-17.59 0-31.84 12.32-31.84 27.51 0 6.63 2.62 12.78 7.26 17.41 9.26 9.23 63.95-26.03 42.37-40.2z" fill="#fff"/></g><defs><clipPath id="a"><path fill="#fff" d="M0 0h90v90H0z"/></clipPath></defs></svg>