<svg width="90" height="90" fill="none" xmlns="http://www.w3.org/2000/svg"><g clip-path="url(#a)"><path d="m35.95 80.44 2.2 5.27c1.1 2.53 3.62 4.3 6.55 4.3 2.93 0 5.45-1.77 6.55-4.3l2.2-5.27h-17.5z" fill="#807B76"/><path d="M35.73 63.02h17.94v20.01c0 .83-.68 1.51-1.51 1.51H37.24c-.83 0-1.51-.68-1.51-1.51V63.02z" fill="#E8E6E1"/><path d="M36.69 62.02c-.36-4.35-3.03-7.75-5.61-11.05-2.98-3.81-6.07-7.74-6.07-13.39 0-10.85 8.83-19.68 19.69-19.68 10.86 0 19.69 8.83 19.69 19.68 0 5.65-3.08 9.58-6.07 13.39-2.58 3.3-5.25 6.7-5.61 11.05H36.69z" fill="#FAD541"/><path d="M44.7 18.9c10.31 0 18.69 8.38 18.69 18.68 0 5.3-2.84 8.93-5.85 12.77-2.5 3.19-5.07 6.47-5.71 10.67H37.59c-.64-4.19-3.21-7.48-5.71-10.67-3.01-3.84-5.86-7.47-5.86-12.77 0-10.3 8.38-18.68 18.69-18.68m0-2c-11.42 0-20.69 9.26-20.69 20.68s11.72 16 11.72 25.44h17.94c0-9.44 11.72-14 11.72-25.44 0-11.44-9.26-20.68-20.69-20.68z" fill="#F7C631"/><path d="M44.7 46.67a9.09 9.09 0 1 0 0-18.18 9.09 9.09 0 0 0 0 18.18z" fill="#FFF599"/><path d="M32.76 51.51c2.19 2.84 4.25 5.82 4.82 9.51h14.24c.57-3.7 2.63-6.69 4.83-9.53a18.267 18.267 0 0 1-11.95 4.44c-4.57 0-8.72-1.67-11.93-4.43l-.01.01z" fill="#FFF599" opacity=".5"/><path d="m55.34 68.22-20.63-2.33c-1.58-.18-3.01.96-3.19 2.53-.17 1.59.96 3.01 2.55 3.19l20.63 2.33c1.58.18 2.99-.96 3.18-2.53.19-1.58-.96-3.01-2.54-3.19zM55.34 77.24l-20.63-2.33c-1.58-.18-3.01.95-3.19 2.53-.17 1.58.96 3 2.55 3.18l20.63 2.34c1.58.18 2.99-.96 3.18-2.53.19-1.58-.96-3.01-2.54-3.19z" fill="#B3ACA8"/><path d="M46.91 0h-4.42v10.33h4.42V0zM61.693 3.977l-5.203 8.936 3.837 2.234L65.53 6.21l-3.837-2.234zM76.19 16.93l-8.97 5.15 2.21 3.84 8.97-5.14-2.21-3.85zM27.708 3.984 23.88 6.213l5.202 8.936 3.828-2.228-5.2-8.937zM11 20.78l8.97 5.14 2.21-3.84-8.97-5.15L11 20.78z" fill="#FAD541"/></g><defs><clipPath id="a"><path fill="#fff" d="M0 0h90v90H0z"/></clipPath></defs></svg>