<svg width="90" height="90" fill="none" xmlns="http://www.w3.org/2000/svg"><path d="m37.96 63.03 41.59-41.59c6.07-6.07 5.43-16.42 5.43-16.42s-10.35-.64-16.42 5.43L26.93 52.08l5.34 5.65 5.69 5.3z" fill="#E8E6E1"/><path d="m32.28 57.73 5.69 5.3 41.59-41.59c6.07-6.07 5.43-16.42 5.43-16.42L32.28 57.73z" fill="#B3ACA8"/><path d="m42.18 58.8 3.9-3.89-6.57-4.42 2.67 8.31z" fill="#8B8987"/><path d="M38.28 75.21c.78.65 3.26-1.45 4.3-2.48a2.944 2.944 0 0 0 .24-3.88c-1.45-1.86-3.08-3.81-4.86-5.82 0 0-6.33-7.07-11.03-10.95-2.01-1.79-3.96-3.42-5.82-4.86-1.17-.91-2.84-.8-3.88.24s-3.14 3.52-2.48 4.3l23.54 23.45h-.01zM19.68 77.38s-.67 3.96-2.2 5.48c-2.86 2.86-7.49 2.86-10.34 0-2.86-2.86-2.86-7.49 0-10.34 1.52-1.52 5.48-2.19 5.48-2.19l7.05 7.05h.01z" fill="#807B76"/><path d="m30.94 67.9-11.37 9.4-7.05-7.05 9.36-11.33 9.06 8.98z" fill="#4A4743"/><path d="M30.12 54.95c-1.09-1.03-2.18-2.03-3.19-2.87-2.01-1.79-3.96-3.42-5.82-4.86-1.17-.91-2.84-.8-3.88.24s-3.14 3.52-2.48 4.3l4.75 4.73c3.4-1.36 7.03-1.81 10.63-1.55l-.01.01zM7.71 73.51a5.702 5.702 0 0 0-1.46 5.54c3.63.75 7.54-.26 10.42-2.97l-4.07-4.07c-1.73-.26-3.55.17-4.88 1.5h-.01z" fill="#D1CCC5"/><path d="M30.94 67.9s-3.29-2.96-13-4.21l3.94-4.77 9.06 8.98z" fill="#383532"/><path d="m36.73 38.53 4.71 6.55 3.66-3.66-8.37-2.89z" fill="#A1A0A0"/><path d="m41.44 45.08 4.59 6.39 7.24-7.23-8.17-2.82-3.66 3.66z" fill="#898989"/><path d="M52.04 63.03 10.45 21.44C4.38 15.37 5.02 5.02 5.02 5.02s10.35-.64 16.42 5.43l41.63 41.63-5.34 5.65-5.69 5.3z" fill="#E8E6E1"/><path d="m57.73 57.73-5.69 5.3-41.59-41.59C4.38 15.37 5.02 5.02 5.02 5.02l52.71 52.71z" fill="#B3ACA8"/><path d="M51.72 75.21c-.78.65-3.26-1.45-4.3-2.48a2.944 2.944 0 0 1-.24-3.88c1.45-1.86 3.08-3.81 4.86-5.82 0 0 6.33-7.07 11.03-10.95 2.01-1.79 3.96-3.42 5.82-4.86 1.17-.91 2.84-.8 3.88.24s3.14 3.52 2.48 4.3L51.71 75.21h.01zM70.32 77.38s.67 3.96 2.2 5.48c2.86 2.86 7.49 2.86 10.34 0 2.85-2.86 2.86-7.49 0-10.34-1.52-1.52-5.48-2.19-5.48-2.19l-7.05 7.05h-.01z" fill="#807B76"/><path d="m59.06 67.9 11.37 9.4 7.05-7.05-9.36-11.33-9.06 8.98z" fill="#4A4743"/><path d="M59.88 54.95c1.09-1.03 2.18-2.03 3.19-2.87 2.01-1.79 3.96-3.42 5.82-4.86 1.17-.91 2.84-.8 3.88.24s3.14 3.52 2.48 4.3l-4.75 4.73c-3.39-1.36-7.03-1.81-10.63-1.55l.01.01zM82.29 73.51c1.5 1.5 1.98 3.63 1.46 5.54-3.63.75-7.54-.26-10.42-2.97l4.07-4.07c1.73-.26 3.55.17 4.88 1.5h.01z" fill="#D1CCC5"/><path d="M59.06 67.9s3.29-2.96 13-4.21l-3.94-4.77-9.06 8.98z" fill="#383532"/></svg>