<svg width="90" height="90" fill="none" xmlns="http://www.w3.org/2000/svg"><path d="M63.9 9.75A39.745 39.745 0 0 0 45 5C22.91 5 5 22.91 5 45c0 6.84 1.72 13.27 4.75 18.9 0 0 11.87 19.18 35.25 19.18 17.63 0 38.23-18.28 38.23-38.09 0-15.25-19.32-35.25-19.32-35.25l-.01.01z" fill="#0BA6DE"/><path d="M79.27 59.25c-.87.94-.6 1.21-1.41 1.74-.8.54-1.07.54-1.07 1.21 0 .67.34.67 0 1.34s-.94 1.27-.47 1.54-.4 1.07.27.6c.67-.47 1.02-.74 2.08-2.68 1.14-2.09 1.28-2.95.94-3.35l-.33-.4h-.01z" fill="#8EB63E"/><path d="M63.57 32.34c.13.84-.81 2.08 0 1.61.8-.47 1.27.11 1.01-.75-.27-.86-1.12-1.59-1.01-.86z" fill="#B2E068"/><path d="M63.9 9.75a39.755 39.755 0 0 1 4.75 18.91c0 22.09-17.91 40-40 40-6.84 0-13.27-1.72-18.9-4.75 6.75 12.56 20 21.1 35.25 21.1 22.09 0 40-17.91 40-40 0-15.25-8.54-28.5-21.1-35.25v-.01z" fill="#0381B8"/><path d="M24.65 12.91c1.14-.22 2.15-.44 2.01-1.04-.13-.59-.76-1.58-.98-1.21-.31.52-.63.75-.76 1.35-.13.6-1.41 1.12-.27.9zM27.81 16.31c.6.04 1.43.43 1.41-.49-.02-.92-.38-1.39 0-1.61.38-.22.13.81.56.63.43-.18.27-.81.63-.58.36.22.63.36.36.92s-.72 1.25-.05.94c.67-.31 1.3-.94 1.05-.36s-.69.65-1.21 1.1c-.51.45-.94.25-.74.72.2.47.31.76.81.6.49-.16 1.07.49 1.07.49.51.36.58-.18 1.14.4.56.58.87 1.34 1.25.58.38-.76.89-.67.65-1.34-.25-.67-.96-1.61-.51-1.48.45.13.45.83.92.63.47-.2.45-.25.92-.6.47-.36.74-.31.25-.92-.49-.6-1.27-.54-1.48-.89-.2-.36.16-.34-.04-.78-.2-.45-.72-1.27-1.32-1.52-.6-.25-1.27-.2-1.36-.65-.09-.45-.4-.69-.87-.87-.34-.13-.49-.39-1.28-.29l-.06.02c-.31.07-.68.15-1.04.24-.05.01-.06.01-.11.03-.42.13-1.13.51-1.47.81-.34.29-.69.18-.59.9.1.71.7.54.84.98.13.45-.07.96-.31 1.21-.11.11-.1.34-.04.57.33.34.34.43.42.54.07.04.13.09.22.1l-.02-.03z" fill="#B2E068"/><path d="M24.32 12.41c.16-.29.3-.45 0-.63s-.98.02-1.14.32c-.16.29-.51.76-.22 1.01.29.25.53.58.8.25.27-.34.45-.37.56-.75.11-.38 0-.19 0-.19v-.01zM25.82 42.03c-.38-.2-.49-.38-1.1-.51-.6-.13-.83-.45-1.18-.31-.36.13-.51.58-.51.58.04.22.69.76 1.1.83.4.07 1.16.07 1.5.4.34.34.74.6 1.16.63.43.02.7-.25.61-.51-.09-.27-1.19-.89-1.57-1.1l-.01-.01zM25.93 43.75c-.71-.25-.6.54-.6.54.2.54.37.38.85.49.6.13.76.05.49-.37-.27-.41-.4-.54-.74-.66zM28.46 42.99c-.45.09-.54.65-.54.65-.02.01-.03.02-.03.02-.26.16-.57.2-.48.6.09.43.16.05.76.52.6.47.78.54 1.25-.14.47-.67.67-.52.2-1.07-.47-.56-.72-.67-1.16-.58z" fill="#B2E068"/><path d="M28.57 68.65c.01.26.02.5.04.8.17 1.91-.34 1.78-.34 3.32 0 1.54.4 1.48.37 2.72-.03 1.24-1.2 1.04 0 2.38 1.2 1.34 2.14 1.61 2.71 1.95.57.33 2.15 1.14 2.11.74-.03-.4-.44-.34-1.01-1.07-.57-.74-.23-.3-.23-1.38 0-1.08-.77-.33-.3-1.44.47-1.11.44.17.67-1.14.23-1.31.03-1.14.87-1.68s1.27.44 1.64-.57c.37-1.01-.57-.7.37-1.37.94-.67.4.3 1.41-.97 1.01-1.27 1.27-.64 1.58-2.01.27-1.23-.43-.93.17-1.56-3.2.82-6.54 1.31-9.99 1.31h-.08l.01-.03z" fill="#97BD4C"/><path d="M44.21 56.26c-.97-.23-1.27.23-1.48-.4-.21-.63.3-.8-.67-.91-.97-.1-1.61 0-2.05-.67-.44-.67-.74-.7-1.78-.67-1.04.03-.17.07-.6-.84-.43-.91.91-.77-.64-1.51s-2.15-.67-2.89-1.34c-.74-.67-.57-.94-.81-1.34-.23-.4-.37-.5-1.31-.6-.94-.1-1.48-.13-2.05-.37-.57-.23-.74-.57-.97-.4-.23.17-.1.87-.4.47-.3-.4-.1-.87-.47-.74s-.64.44-1.07.7c-.43.26-.2.7-1.01.84-.8.13-.64-.13-1.14-.17-.5-.03-.23.91-.84.13-.6-.77-.54-1.07-.57-1.51-.03-.44.04-.74-.07-1.21-.1-.47-.2-.57-.8-.74-.6-.17-1.24.23-1.14-.37.1-.6.74-.74.7-1.44-.03-.7-.13-1.01-.5-1.04-.37-.03-.74.37-1.51.64s-.91.84-1.64.34c-.74-.5-.57-.91-.74-1.78-.17-.87-.2-.87.3-1.71s.4-1.07 1.21-1.11c.81-.04 1.81.13 2.42 0 .6-.13-.44-.77.6-.47 1.04.3.8.2 1.17 1.21.37 1.01.2 1.84 1.04 1.41.84-.44 1.21-.1.94-1.27s-1.21-.67-.3-1.84c.91-1.17.76-.87 1.62-1.48.86-.61.53.07.86-.97.33-1.04.13-.2.54-.81.4-.6-.6 0 .3-.87.91-.87.54-.54 1.41-1.04.87-.5.54-.67.77-1.21.23-.54.57-.84 1.31-.44.74.4.54.7 1.31-.13s.44-1.34 1.18-.91c.74.44 1.54.84.97-.13-.57-.97-.97-1-1.58-.97-.61.03-1.04.54-.87-.23.17-.77-.47-1.88.27-1.37.74.5.84.94 1.34.3.5-.64.07-.24.87-.67.81-.44 1.11-.5 1.11-.5s-1.18.7-1.21 1.38c-.04.67-.1.74.7 1.14.81.4.7.64 1.27.57.57-.07.91.1.77-.84-.13-.94-.44-1.24-.57-1.88-.13-.64.17-1.04-.37-1.78s-1.18-1.07-1.68-1.81-.47-.87-.57-1.54c-.1-.67.03-.84-.5-.87-.53-.03-.97.83-1.44.58s-.03-.49-.6-1.09c-.57-.6-.57-.64-1.41-.85-.84-.21-.84.22-1-.21-.17-.44-.04-1.01-.4-.67-.37.34-.57.7-.47 1.34.08.5-.03 1.39-.08 1.75-.01.1-.02.16-.02.16s-.23-.4-.17.57-.27 1.34-.44 1.34c-.17 0 .67-.91-.1-.5-.77.4-.67-.94-.77-.03-.1.91-.13.37-.2 1.21s.47.77 0 1c-.47.24-.48.27-.64-.6-.16-.87 1.21-.7-.21-1.24-1.43-.54-1.25-.27-1.96-.74s-1.28.47-1.32-.81c-.03-1.27-1.07-.37 0-1.37.64-.6.74-.71.91-.89.85-.06 1.25.57 1.46-.27.23-.9-.02-1.05 0-1.5v-.03c.15-.24.23-.26.47.17.47.84.21 1.17 1.05 1.32.83.15.73.36.63-.28-.1-.64-.57-.74.07-.67.64.07.94.87 1.01.13.07-.74.1-.6-.4-1.01-.5-.4-.04-.41-.54-.82-.16-.13-.22-.2-.26-.25a.848.848 0 0 1-.42-.54c-.04-.04-.04-.06-.09-.1-.68-.67-.12-.47-.41-.97-.3-.5-.27.7-.84-.2-.57-.91.14-1.17-.6-1.21-.74-.03-.98.07-1.04.6-.06.53.47.97 0 .94-.47-.03-.37-.5-1.01-.3s-.14.77-.72.81c-.58.03-.29-.03-.58.03s-2.56.76-2.03.31c.05-.05-.51.47-1.09.57-.45.08-.92-.12-1.28-.15a40.013 40.013 0 0 0-7.41 9.54c-.03.64-.37.62-.37 1.48 0 .91.27.87.2 1.44S8.8 29.96 8.9 31.8c.1 1.85-.03 2.42.67 3.52.71 1.11.94 1.04 1.08 1.81.13.77-.24 1.18.13 1.91.37.74.77.61 1.01 1.54.23.94.47 1.88.87 1.38s.34-.57-.07-1.48c-.4-.91-1.31-2.05-.57-1.71.74.34 1.44 1.18 1.71 2.08.27.91-.77 1.68.62 2.82 1.39 1.14 1.56 2.15 2.8 1.84 1.24-.3 1.31-.27 1.98.5.67.77.54.67 1.41.97.87.3.37.24 1.31 1.04.94.81.81 1.14 1.98 1.54 1.18.4 1.75-.2 1.44.97-.31 1.17-.74.3-.97 1.98-.23 1.68-.07 1.27-.2 2.25s-1.14-.07.2 2.25c1.34 2.31.24 2.55 2.01 3.76 1.77 1.21 2.25 1.04 2.28 3.42.03 2.02-.1 3.05-.04 4.47h.09c3.46 0 6.79-.49 9.99-1.31.07-.07.08-.11.2-.21 1.07-1.01 2.05-.97 2.72-1.95.67-.97.74-1.14.84-2.48.1-1.34-.77-1.24.37-2.52 1.14-1.27 1.45 0 1.45-1.81s.97-1.88 0-2.11v-.01z" fill="#B2E068"/><path d="M27.58 16.21c-.08-.11-.09-.19-.42-.54.06.23.21.43.42.54z" fill="#A8C66A"/><path d="M30.69 10.13c.27-.27.8.81 1.14 0 .34-.8-.2-.94.6-1.48.81-.54 1.12-.14 1.61-.4s1.27-1.07 2.48-1.21c0 0 .47.2-.47.6-.94.4-1.68-.2-1.61.87.07 1.07-.09 1.68 1.1 1.68 1.19 0 2.39-.94 3.13.4.74 1.34-.07 2.68.54 3.29.61.61.87.07.54 1.01-.34.94-.81.94-.27 2.15s-.24 1.21.41 2.21c.66 1.01 1.2 1.61 1.93 1.74.74.13.74.07 1.68-1.41s.81-2.35 1.74-2.68c.94-.34 1.07.6 1.61-.27s.54-.81 1.68-1.01c1.14-.2 2.15-.27 2.35-.74.2-.47-.13-.69.4-.85.54-.16.81-.36.67-1.03-.13-.67-1.01-1.01.03-1.48s1.51-.34 1.31-1.07c-.2-.74-.07-.13-.33-1.34-.27-1.21-.25-1.41.38-1.74.62-.34-.38-.2.62-.34 1.01-.13 1.94.1 1.4-.3s-1.02-.4-2.09-.4c-1.07 0-.93-.1-1.45-.76a40.56 40.56 0 0 0-6.84-.58A39.81 39.81 0 0 0 28.36 8.6c.07.01.13.03.13.03.24.16-.9.16-.64.56.27.4.81.47 1.34.54.54.07.47.47-.13.47s-.87-.34-1.68-.4c-.31-.02-.76-.09-1.16-.13-.19.1-.39.21-.58.31.49.42.32.77 1 .9.74.13 1.54.07 1.07.4-.32.23.36.08 1.11-.09.47-.14.83-.23 1.1-.26.83-.2.48-.52.74-.78l.03-.02z" fill="#B2E068"/><path d="M29.95 10.92c-.27.03-.63.12-1.1.26.36-.09.73-.17 1.04-.24l.06-.02z" fill="#A8C66A"/><path d="M24.52 11.41c.47-.53 1.25-1.21.8-1.24-.61.34-1.21.7-1.79 1.08.28.31.63.56.99.16z" fill="#B2E068"/><path d="M53.29 16.75c.05-.06.08-.1.08-.1-.14.05-.14.08-.08.1z" fill="#8EB63E"/><path d="M53.37 18.86c1.07-.47 1.81-1.21 1.34-1.68-.35-.35-1.22-.36-1.42-.43-.15.19-.52.55-.93.3-.54-.33-1.34-.87-1.68-.4-.33.47.34.87.6 1.68.27.81 1.01 1.01 2.08.54l.01-.01zM55.6 26.44c.52.27 1.26.74 1.6 0 .33-.74-.13-.81 0-1.54.13-.74.94-.54.13-.74-.81-.2-1.21.2-1.21.2-.2.4-.37.47-.52 1.01-.15.54-.52.81 0 1.07z" fill="#B2E068"/><path d="M58.13 25.47c-.2.63-.43 1.29-.45 1.37-.02.07-.76.41.11.27.88-.13.94.06 1.55-.27.6-.33.87-.06 1.21-.73.34-.67.47-.77-.27-1.43-.74-.65-.87-.92-.87-1.66 0-.74.27-.27-.33-.81-.6-.54.2-.74-.6-.54-.81.2-1.14.54-1.14.54.27.47.67 1.5.8 1.89.13.39.2.73 0 1.37h-.01zM60.08 21.6c.07-.59-.2-1.06-.5-1-.3.07-.5.45-.5.45.4.56.94 1.14 1.01.55h-.01zM61.96 33.18c0-.37-.53-.64-.57-.57-.04.07-.37.57-.37.57-.07.17-.4 1.04 0 .84.4-.2.94-.47.94-.84zM65.92 35.09c.34-.13-.07-.2 0-.6.07-.4-.33-.47-.33-.47l-.47.47c0 .4.47.74.81.6h-.01z" fill="#B2E068"/><path d="M71.35 36.3c-.27-.47-.09-.67-.62-.54-.52.13-.73.54-.73.54s.54.54.94.4c.4-.13.67.07.4-.4h.01z" fill="#8EB63E"/><path d="M81.42 40.53c.87 0 1.21-.34 1.61.27.38.57.59.78 1.01.92-.14-5.08-1.24-9.91-3.12-14.34a39.9 39.9 0 0 0-6.08-9.02c-.07.06-.15.11-.26.16-.6.27-.81.6-1.14.2-.34-.4-1.48-1.07-.6-.94.87.13 1.48 1.14 1.21 0-.04-.15-.08-.29-.13-.43-.49-.51-1-1.01-1.52-1.5-.39-.19-.88-.53-1.38-.82-.67-.4-1.21-.6-2.08-.6-.87 0-1.88.34-2.62.6-.04.01-.05.03-.08.04.49 1.35.9 2.73 1.25 4.14 1.01-1.1 1.9-2.33 1.58-1.43-.34.94-1.34 1.6-.94 2.18.4.57 0 .6.5 1.09.5.49.77.49 1.11.36.33-.13.4-.6.33-.13s-1.21.47-1.44 1.01c-.19.43-.2.66-.38 1.05.23 1.75.4 3.52.4 5.33 0 1.53-.11 3.04-.27 4.53.11.56.25 1.04.25 1.04.23.54-.17.94.5 1.07.67.13 1.01.54 1.01-.54s-.54-.94.07-1.48c.6-.54.47-1.21.67.13.2 1.34-.07 2.08.94 2.01 1.01-.07 1.14-.13 1.41.2.27.34-.07.6.54.81.6.2.87.07.54.74-.33.67.2.27-.33.67-.54.4-1.54.27-2.41.13-.87-.13.27-.2-.87-.13-1.14.07-.67-.47-1.27-.67-.6-.2-.67-.47-1.07.2-.4.67.07 1.21-.74.87-.06-.02-.08-.05-.13-.07-1.14 4.67-3.06 9.03-5.69 12.9.1.07.2.15.31.32.54.81 1.61 0 1.48 1.07-.13 1.07-.87 1.21-.2 2.35.67 1.14 1.81.87 1.81 2.68s.94 2.35 0 3.35-1.21 1.21-.67 2.15c.54.94.6 1.34.81 2.88.2 1.54-.51 1.81.28 2.95.79 1.14.05 1.68.86 2.35.81.67 1.07 1.01 1.81.54s.67-.87 1.61-1.07c.94-.2.94-.4 1.74-1.54.81-1.14.67-.81 1.28-1.88.6-1.07.74-.34 1.01-1.34.27-1.01-.34-1.01.34-1.95s.87-.6 1.61-1.74c.74-1.14.54-1.27.47-2.68-.07-1.41-.32-1.21.08-2.82.39-1.61 0-.6 1.47-2.21 1.48-1.61 1.74-1.48 2.15-2.68.4-1.21.54-1.01.74-2.15.2-1.14.54-2.13-.27-1.7-.81.43-1.68 1.03-2.28.43-.6-.6-1.34-2.59-1.75-3.24-.4-.65-.54-2.34-1.21-2.74-.67-.4-.54-.26-.87-1.24-.33-.97-.87-1.78-.2-1.44.67.34.8.47 1.41 1.44.6.97 1.01 1.68 1.34 2.53.34.85.67 1.46 1.07 2.26.4.81.2 1.01.47 1.48.27.47.4.33 1.21-.13.81-.46 1.54-.87 2.35-1.41.81-.54 1.07-.27 1.21-1.34.13-1.07.4-.37 0-1.59-.4-1.23-.33-2.03-1.14-1.79-.81.23-1.07.03-1.48-.5-.4-.54-1.21-1.48-.6-1.41.6.07.54 1.27 1.41 1.27l-.04-.01z" fill="#5D9948"/><path d="M66.39 37.24c-.47-.34-1.21-.6-1.21-.6-.6-.13-.74-.27-.67-1.01.07-.74-.4-.94-.94-1.07-.54-.13-2.15.33-2.82.54-.67.2-1.47.65-2.21.49-.74-.16-1.07-.02-1.95.58-.87.6-.51.81-.99 1.88-.48 1.07-.62.4-1.56 1.41-.94 1.01-1.36 1.01-1.32 2.35.04 1.34-.76.84-.36 1.9.4 1.05-.16.32-.11 1.79.05 1.48-.77 2.01.47 3.35 1.25 1.34 1.21 2.28 2.87 2.68 1.66.4 1.53-.34 2.47 0 .94.34 1.34 0 2.28-.2.74-.16 1.07-.5 1.43-.25 2.62-3.87 4.54-8.23 5.69-12.9-.64-.31-.64-.62-1.08-.94h.01zM65.04 16.46c-.67.72-.81 2.23-1.74 2.65-.94.42-1.54.49-1.34 1.43.2.94-.2 1.68.74 1.95s.94-.81 1.48-.2c.54.6-.4 1.27.67 1.41 1.07.13 1.14 1.07 1.54.07.4-1.01-.07-1.01.54-1.54.6-.54 1.34-.04.74-1.16-.6-1.12-1.41-.52-.34-1.66.05-.06.11-.12.16-.18-.34-1.41-.76-2.79-1.25-4.14-.63.27-.56.69-1.2 1.38v-.01z" fill="#B2E068"/><path d="M66.86 24.49c-.87.07-1.14.2-1.68-.07s-.74.13-1.01-.34c-.27-.47-.2-1.48-.6-.94-.4.54-.6.34-.47 1.01.13.67.2.74-.6.94-.81.2-.81.54-1.41 1.34-.6.8-1.21.6-1.88 1.07-.67.47-1.74-.13-1.07.94.67 1.07 2.01.81 1.41 1.54-.6.74.54.8-.6.74-1.14-.07-2.08-.6-2.55.4-.47 1.01-1.04.94-.79 2.01.25 1.07-.01 1.95.99 1.81 1.01-.13 1.88.34 2.68-.34.81-.67.67-1.01 1.07-1.61.4-.6.94-1.28 1.54-1.54.6-.26.81-.81 1.54-.47.74.33.6.47 1.34 1.01.74.54.2.34 1.01.94.81.6.74 0 .81.6.07.6-.4 1.07.13 1.01.54-.07.67-.2.74-.67.07-.47.27-.6.4-.4.13.2 1.01 0 .07-.6s-.6-.33-1.41-1.14c-.81-.8-1.14-.74-1.21-1.27-.07-.54.47-.6 1.41.47.94 1.07 1.48.63 1.54 1.48.02.26.07.52.12.78.17-1.49.27-3 .27-4.53 0-1.81-.16-3.58-.4-5.33-.05.1-.05.16-.13.29-.4.67-.4.81-1.27.87h.01z" fill="#B2E068"/></svg>