<svg width="90" height="90" fill="none" xmlns="http://www.w3.org/2000/svg"><path d="M45 5C22.91 5 5 22.91 5 45s17.91 40 40 40 40-17.91 40-40S67.09 5 45 5zm0 71.25c-17.26 0-31.25-13.99-31.25-31.25 0-17.26 13.99-31.25 31.25-31.25 17.26 0 31.25 13.99 31.25 31.25 0 17.26-13.99 31.25-31.25 31.25z" fill="#807B76"/><path d="M61.21 40.07H49.93V28.79h-9.86v11.28H28.79v9.86h11.28v11.28h9.86V49.93h11.28v-9.86z" fill="#B3ACA8"/><path d="M49.93 39.89v-11.1h-9.87v11.28H28.78v9.87h11.07a47.55 47.55 0 0 0 10.08-10.05z" fill="#E8E6E1"/></svg>