<svg width="90" height="90" fill="none" xmlns="http://www.w3.org/2000/svg"><path d="M81.7 12.64 21.34 3.73c-4.33-.63-8.39 2.39-9.03 6.72l-.67 47.59c-.82 4.3 46.65 27.5 50.96 28.32h16.47c2.02 0 2.55-3.22 2.55-3.22l6.8-61.47c.64-4.33-2.39-8.39-6.72-9.03z" fill="#807B76"/><path d="M66.27 16.14H9.46c-4.38 0-7.96 3.58-7.96 7.96v54.3c0 4.38 3.58 7.96 7.96 7.96h69.61c-4.9 0-4.84-7.31-4.84-7.96V24.09c0-4.38-3.58-7.96-7.96-7.96v.01z" fill="#E8E6E1"/><path d="M63.65 33.36H9.46v-7.11c0-1.19.97-2.16 2.16-2.16h52.03v9.27z" fill="#FA412D"/><path d="M5.41 25.59v33.99c0 1.95 1.59 3.54 3.54 3.54 11.8 0 50.14-42.86 36.28-42.86H10.74c-2.93 0-5.33 2.4-5.33 5.33z" fill="#fff"/><path d="M63.36 41.32h-20.9a.28.28 0 0 0-.28.28v3.56c0 .155.125.28.28.28h20.9a.28.28 0 0 0 .28-.28V41.6a.28.28 0 0 0-.28-.28zM63.36 49.55h-20.9a.28.28 0 0 0-.28.28v3.56c0 .155.125.28.28.28h20.9a.28.28 0 0 0 .28-.28v-3.56a.28.28 0 0 0-.28-.28zM63.36 57.8h-20.9a.28.28 0 0 0-.28.28v3.56c0 .155.125.28.28.28h20.9a.28.28 0 0 0 .28-.28v-3.56a.28.28 0 0 0-.28-.28zM63.36 66.03h-20.9a.28.28 0 0 0-.28.28v3.56c0 .155.125.28.28.28h20.9a.28.28 0 0 0 .28-.28v-3.56a.28.28 0 0 0-.28-.28zM63.37 74.27H9.79a.28.28 0 0 0-.28.28v3.56c0 .155.125.28.28.28h53.58a.28.28 0 0 0 .28-.28v-3.56a.28.28 0 0 0-.28-.28z" fill="#B3ACA8"/><path d="M38.28 41.37H9.51v28.78h28.77V41.37z" fill="#807B76"/><path d="M23.9 41.37H9.51v14.39H23.9V41.37zM38.29 55.77H23.9v14.39h14.39V55.77z" fill="#B3ACA8"/><path d="M11.62 24.09c-1.19 0-2.16.97-2.16 2.16v7.11h33.8c2.54-3.65 4.29-6.91 4.79-9.27H11.62z" fill="#FF7259"/></svg>