<svg width="90" height="90" fill="none" xmlns="http://www.w3.org/2000/svg"><path d="M45 85H13.89A8.89 8.89 0 0 1 5 76.11V45L45 5h31.11A8.89 8.89 0 0 1 85 13.89V45L45 85z" fill="#81B64C"/><path d="M13.89 5H45v40H5V13.89A8.89 8.89 0 0 1 13.89 5zM76.11 85H45V45h40v31.11A8.89 8.89 0 0 1 76.11 85z" fill="#E8E6E1"/><path d="M8.67 14.99V59.3c0 1.83 1.35 3.32 3.32 3.32 11.95 0 51.06-54.3 38.03-54.3H15.33c-3.67 0-6.67 3-6.67 6.67h.01z" fill="#B2E068"/><path d="M45 8.32H15.33c-3.67 0-6.67 3-6.67 6.67V45h24.41C37.4 39.75 41.6 33.97 45 28.57V8.32z" fill="#fff"/></svg>