<svg width="90" height="90" fill="none" xmlns="http://www.w3.org/2000/svg"><path d="M10.9 65.21V14.72h12.01L45 2.4l22.09 12.32H79.1v50.49L45 87.5 10.9 65.21z" fill="#0381B8"/><path d="m45 4.79 20.59 11.49.95.53H77v47.26L44.99 84.99 12.98 64.07V16.82h10.46l.95-.53L44.98 4.8m0-4.79L22.35 12.64H8.79v53.71L44.98 90l36.19-23.65V12.63H67.61L45 0l-.02.01z" fill="#0BA6DE"/><path d="m71.48 26-.1-1.63H59.82v-3.2H30.77v3.21H19.21L19.12 26v.55c0 1.35.13 4.87 1.78 8.4.84 1.76 2.1 3.52 3.97 4.83 1.83 1.29 4.22 2.09 7.1 2.13 1.71 3.95 5.11 6.98 9.3 8.2v4.88c-.07 4.43-3.66 8-8.11 8h-.5v4.8h25.23v-4.8h-.51c-4.47 0-8.1-3.63-8.1-8.1v-4.75a14.57 14.57 0 0 0 9.38-8.22c2.87-.04 5.27-.84 7.1-2.13 2.82-1.99 4.22-4.91 4.94-7.45.73-2.56.81-4.76.81-5.78v-.55l-.03-.01zm-44.3 10.48c-1.76-1.22-2.81-3.23-3.39-5.27-.33-1.15-.5-2.2-.58-2.82h7.56v7.75c0 .56.03 1.12.1 1.66-1.58-.18-2.75-.67-3.7-1.32h.01zm38.88-3.27c-.61 1.3-1.46 2.44-2.64 3.27-.94.65-2.11 1.14-3.69 1.32.06-.53.1-1.09.1-1.66v-7.75h7.56c-.14 1.14-.48 3.08-1.33 4.82z" fill="#FED859"/><path d="m71.48 26-.1-1.63H59.82v-3.2H30.77v3.21H19.21L19.12 26v.55c0 1.35.13 4.87 1.78 8.4.84 1.76 2.1 3.52 3.97 4.83 1.83 1.29 4.22 2.09 7.1 2.13 1.71 3.95 5.11 6.98 9.3 8.2v4.88c-.07 4.43-3.66 8-8.11 8h-.5v4.8h25.23v-4.8h-.51c-4.47 0-8.1-3.63-8.1-8.1v-4.75a14.57 14.57 0 0 0 9.38-8.22c2.87-.04 5.27-.84 7.1-2.13 2.82-1.99 4.22-4.91 4.94-7.45.73-2.56.81-4.76.81-5.78v-.55l-.03-.01zm-44.3 10.48c-1.76-1.22-2.81-3.23-3.39-5.27-.33-1.15-.5-2.2-.58-2.82h7.56v7.75c0 .56.03 1.12.1 1.66-1.58-.18-2.75-.67-3.7-1.32h.01zm38.88-3.27c-.61 1.3-1.46 2.44-2.64 3.27-.94.65-2.11 1.14-3.69 1.32.06-.53.1-1.09.1-1.66v-7.75h7.56c-.14 1.14-.48 3.08-1.33 4.82z" fill="#F7C631"/><path d="M41.26 50.1v4.88c-.07 4.43-3.66 8-8.11 8h-.5v4.8h25.23v-4.8h-.51c-4.47 0-8.1-3.63-8.1-8.1v-4.75l-8-.02-.01-.01z" fill="#E3AA24"/><path d="M41.26 51.48v3.5c-.07 4.43-3.66 8-8.11 8h-.5v4.8h25.23v-4.8h-.51c-11.47 0-16.11-11.5-16.11-11.5z" fill="#F7C631"/><path d="M58.64 41.91c2.87-.04 5.27-.84 7.1-2.13 2.82-1.99 4.22-4.91 4.94-7.45.73-2.56.81-4.76.81-5.78V26l-.1-1.63H59.83v4.03h7.56c-.14 1.14-.48 3.08-1.33 4.82-.61 1.3-1.46 2.44-2.64 3.27-.94.65-2.11 1.14-3.69 1.32l-1.09 4.1zM30.88 37.81c-1.58-.17-2.76-.66-3.69-1.31-1.18-.83-2.03-1.97-2.64-3.27-.85-1.74-1.2-3.68-1.33-4.82h7.56v-4.03H19.22l-.09 1.64v.54c0 1.01.08 3.21.81 5.78.72 2.54 2.13 5.47 4.95 7.46 1.83 1.28 4.22 2.09 7.09 2.12l-1.08-4.11h-.02z" fill="#E3AA24"/><path d="M31.97 41.91c13.32 0 13.34-20.57 13.34-20.74H30.78v14.98c0 .56-.02.9.1 1.66.46 2.92 1.09 4.1 1.09 4.1z" fill="#FCE26A"/></svg>