<svg xmlns="http://www.w3.org/2000/svg" width="90" height="90" viewBox="0 0 90 90">
  <defs>
    <style>
      .cls-1 {
        fill: #f48043;
      }

      .cls-2 {
        opacity: 0.15;
      }

      .cls-3 {
        fill: #fff;
      }
    </style>
  </defs>
  <g id="Layer_1" data-name="Layer 1">
    <g>
      <path class="cls-1" d="M61.52,14.59a3.77,3.77,0,0,0,6.43-3,10.73,10.73,0,1,1,9.81,9.81,3.78,3.78,0,0,0-3,6.43L87,40.06a7.83,7.83,0,0,1,0,11.08L50.43,87.7a7.83,7.83,0,0,1-11.08,0L2.94,51.28a7.83,7.83,0,0,1,0-11.08l9.44-9.44a4.71,4.71,0,0,1,6.68,0l1.12,1.12a4.57,4.57,0,0,1,1.09,1.78,11.87,11.87,0,0,0,3.58,8.82l.12.13A11.91,11.91,0,0,0,42.12,26.09c-.15-.16-.31-.31-.46-.46l-.08-.08A11.88,11.88,0,0,0,31.4,22.2a4.77,4.77,0,0,1-2.33-1.26l-.1-.1a4.73,4.73,0,0,1,0-6.68L39.49,3.65a7.82,7.82,0,0,1,11.08,0Z"/>
      <g class="cls-2">
        <path class="cls-3" d="M58.51,32.67A50.21,50.21,0,0,0,54.5,13L47.89,6.33A4,4,0,0,0,45,5.15a4,4,0,0,0-2.85,1.18L31.66,16.85a.92.92,0,0,0-.27.65.9.9,0,0,0,.27.65,1.37,1.37,0,0,0,.19.17c.44,0,.88-.05,1.32-.05a15.59,15.59,0,0,1,11.1,4.59l0,.05.09.09.49.5A15.71,15.71,0,0,1,22.29,45.3l0,0-.11-.11a15.75,15.75,0,0,1-4.67-10.6l-1.1-1.1a.89.89,0,0,0-.65-.27.86.86,0,0,0-.65.27L5.62,42.89a4,4,0,0,0,0,5.71L33.33,76.3A50.41,50.41,0,0,0,58.51,32.67Z"/>
      </g>
    </g>
  </g>
</svg>
