<svg width="90" height="90" fill="none" xmlns="http://www.w3.org/2000/svg"><path d="M77.94 16.25c-11.85-.28-19.99-3.2-31.46-13.21-.82-.72-2.14-.72-2.96 0-11.47 10.01-19.61 12.94-31.46 13.21-1.09.03-1.97.91-1.97 2.01V42.6c0 18.25 12.09 30.06 33.27 44.44.9.61 2.37.61 3.28 0C67.82 72.66 79.91 60.85 79.91 42.6V18.26c0-1.1-.88-1.99-1.97-2.01z" fill="#807B76"/><path d="M75.74 18.27c-11.06-.26-18.66-2.98-29.36-12.33-.77-.67-1.99-.67-2.76 0-10.71 9.35-18.31 12.07-29.36 12.33-1.02.02-1.84.85-1.84 1.88v22.52c0 17.03 11.28 28.05 31.05 41.47.84.57 2.22.57 3.06 0C66.3 70.72 77.58 59.7 77.58 42.67V20.15c0-1.03-.82-1.85-1.84-1.88z" fill="#D1CCC5"/><path d="M70.25 23.3c-9.08-.21-15.33-2.45-24.12-10.13-.63-.55-1.64-.55-2.27 0-8.79 7.68-15.04 9.92-24.12 10.13-.83.02-1.51.7-1.51 1.54v17.98c0 13.99 9.27 23.04 25.51 34.07.69.47 1.82.47 2.51 0 16.24-11.02 25.51-20.08 25.51-34.07V24.84c0-.84-.68-1.52-1.51-1.54z" fill="#45753C"/><mask id="a" style="mask-type:luminance" maskUnits="userSpaceOnUse" x="20" y="15" width="50" height="60"><path d="M68.06 25.32c-8.29-.19-13.99-2.24-22.02-9.25-.58-.5-1.5-.5-2.07 0-8.03 7.01-13.73 9.06-22.02 9.25-.76.02-1.38.64-1.38 1.41v16.16c0 12.77 8.46 21.04 23.29 31.11.63.43 1.66.43 2.29 0 14.83-10.07 23.29-18.33 23.29-31.11V26.73c0-.77-.62-1.39-1.38-1.41z" fill="#fff"/></mask><g mask="url(#a)" fill="#81B64C"><path d="M46.69 9.82 22.3 20.5c-4.12 0-7.95 1.24-7.95 5.4l.3 19.39h31.49l.55-35.47zM46.13 79.52h6.33c4.12 0 20.74-19.36 20.74-23.52V45.3H46.13v34.22z"/></g><path d="M18.24 42.82V24.84c0-.84.68-1.52 1.51-1.54 9.08-.21 15.33-2.45 24.12-10.13.63-.55 1.64-.55 2.27 0 3.36 2.94 6.35 5.07 9.27 6.61.33-3.15.51-6.36.53-9.63-2.98-1.83-6.07-4.16-9.46-7.11-.82-.72-2.14-.72-2.96 0-11.47 10.01-19.61 12.94-31.46 13.21-1.09.03-1.97.91-1.97 2.01V42.6c0 11.87 5.14 21.02 14.55 29.92a52.66 52.66 0 0 0 6.68-5.01c-8.44-7.39-13.08-14.81-13.08-24.69z" fill="#B3ACA8"/><path opacity=".4" d="m42.54 45.6-6.25-6.2c-.77-.77-2.03-.75-2.79.03l-2.45 2.52c-.76.78-.75 2.05.03 2.81l10.08 9.99a1.92 1.92 0 0 0 .85.5c3.62-5.39 6.65-11.5 8.95-18.15l-8.41 8.5h-.01z" fill="#fff"/><path d="M53.8 18.84c-2.42-1.44-4.91-3.26-7.67-5.67-.63-.55-1.64-.55-2.27 0-8.79 7.68-15.04 9.92-24.12 10.13-.83.02-1.51.7-1.51 1.54v17.98c0 9.23 4.1 16.3 11.51 23.22 13.42-11.74 22.4-28.4 24.06-47.2z" fill="#5D9948"/><path d="M18.24 42.82V24.84c0-.84.68-1.52 1.51-1.54 9.08-.21 15.33-2.45 24.12-10.13.63-.55 1.64-.55 2.27 0 3.36 2.94 6.35 5.07 9.27 6.61.23-2.24.39-4.51.47-6.8-2.99-1.77-6.09-4.07-9.5-7.04-.77-.67-1.99-.67-2.76 0-10.71 9.35-18.31 12.07-29.36 12.33-1.02.02-1.84.85-1.84 1.88v22.52c0 11.35 5.02 20.03 14.21 28.53 1.61-1.13 3.18-2.35 4.69-3.68-8.44-7.39-13.08-14.81-13.08-24.69v-.01z" fill="#E8E6E1"/><path d="M46.07 45.29h.06v-.12l-.06.12z" fill="#9881F2"/><path d="M46.58 16.53c-.18-.16-.36-.3-.54-.46-.58-.5-1.5-.5-2.07 0-8.03 7.01-13.73 9.06-22.02 9.25-.76.02-1.38.64-1.38 1.41v16.16c0 .82.04 1.62.11 2.41h25.4s.04-.08.07-.12l.44-28.64-.01-.01z" fill="#B2E068"/><path d="m61.58 37-17.6 17.78c-.68.68-1.73.76-2.5.24-.12-.07-.22-.16-.32-.26l-10.08-9.99c-.77-.77-.79-2.03-.03-2.81l2.45-2.52c.76-.78 2.01-.79 2.79-.03l6.25 6.2 13.78-13.92c.77-.77 2.02-.77 2.79 0l2.47 2.5c.77.77.77 2.04 0 2.81z" fill="#81B64C" stroke="#81B64C" stroke-width="2.92" stroke-miterlimit="10"/><path d="m61.58 37-17.6 17.78c-.68.68-1.73.76-2.5.24-.12-.07-.22-.16-.32-.26l-10.08-9.99c-.77-.77-.79-2.03-.03-2.81l2.45-2.52c.76-.78 2.01-.79 2.79-.03l6.25 6.2 13.78-13.92c.77-.77 2.02-.77 2.79 0l2.47 2.5c.77.77.77 2.04 0 2.81z" fill="#fff"/></svg>