<svg width="90" height="90" fill="none" xmlns="http://www.w3.org/2000/svg"><path d="M85 52.5v-15l-11.68-2.34c-.38-1.11-.83-2.18-1.34-3.23l6.62-9.91-10.61-10.61-9.92 6.61c-1.04-.51-2.12-.96-3.22-1.34L52.51 5h-15l-2.34 11.68c-1.11.38-2.18.83-3.22 1.34l-9.92-6.61-10.61 10.61 6.62 9.91c-.51 1.04-.96 2.12-1.34 3.23L5.02 37.5v15l11.68 2.34c.38 1.11.83 2.18 1.34 3.23l-6.62 9.91 10.61 10.61 9.92-6.62c1.04.51 2.12.96 3.22 1.34l2.34 11.68h15l2.34-11.68c1.11-.38 2.18-.83 3.23-1.34l9.91 6.62L78.6 67.98l-6.62-9.91c.51-1.04.96-2.12 1.34-3.23L85 52.5zM45 55c-5.52 0-10-4.48-10-10s4.48-10 10-10 10 4.48 10 10-4.48 10-10 10z" fill="#D1CCC5"/><path d="M45 27.5c9.65 0 17.5 7.85 17.5 17.5S54.65 62.5 45 62.5 27.5 54.65 27.5 45 35.35 27.5 45 27.5zm0-2.5c-11.04 0-20 8.96-20 20s8.96 20 20 20 20-8.96 20-20-8.96-20-20-20z" fill="#B3ACA8"/><path d="M45 27.5c-9.65 0-17.5 7.85-17.5 17.5S35.35 62.5 45 62.5 62.5 54.65 62.5 45 54.65 27.5 45 27.5zM45 55c-5.52 0-10-4.48-10-10s4.48-10 10-10 10 4.48 10 10-4.48 10-10 10z" fill="#E8E6E1"/></svg>