<svg width="90" height="90" fill="none" xmlns="http://www.w3.org/2000/svg"><path d="M68.39 3.34c-1.34-1.53-2.75-.5-2.75-.5l-5.41 5.41s-1.56 1.3-.11 3.03a46.432 46.432 0 0 1 10.86 29.69c-.03 10.54-3.67 21.09-10.86 29.69-1.45 1.73.11 3.03.11 3.03l5.41 5.41s1.41 1.03 2.75-.5c9.43-10.76 14.11-24.19 14.08-37.63.02-13.44-4.66-26.88-14.08-37.64v.01z" fill="#9881F2"/><path d="M51.85 19.25c-1.15-1.42-2.4-.23-2.4-.23l-5.94 5.94s-.87 1.04.12 2.39c2.98 4.04 4.48 8.83 4.49 13.62 0 4.79-1.51 9.58-4.49 13.62-1 1.35-.12 2.39-.12 2.39l5.94 5.94s1.25 1.19 2.4-.23a34.371 34.371 0 0 0 7.68-21.72c0-7.7-2.55-15.39-7.68-21.72zM21.59 57.17l-.04 6.58c-.2 1.95-.32 7.75-9.01 13.2-3.19 2-5.02 5.85-5.02 10.55h37.2c0-4.7-1.83-8.55-5.02-10.55-8.66-5.44-8.8-11.25-9.01-13.2l-.04-6.58h-9.07.01z" fill="#9881F2"/><path d="M28.54 59.38s-2.22-.71-6.96-.27l-.03 4.64c-.19 1.81-.32 6.92-7.25 12 6.89-2.86 12.44-11.38 14.23-16.37h.01z" fill="#5E53D9"/><path d="M33.7 54.74H18.56a.93.93 0 0 0-.93.93v3.87c0 .514.416.93.93.93H33.7a.93.93 0 0 0 .93-.93v-3.87a.93.93 0 0 0-.93-.93z" fill="#9881F2"/><path d="M34.99 42.55c0 4.89-3.97 8.86-8.86 8.86-4.89 0-8.86-3.97-8.86-8.86 0-4.89 3.97-8.86 8.86-8.86 4.89 0 8.86 3.97 8.86 8.86z" fill="#5E53D9"/><path d="M27.78 47.43a6.46 6.46 0 1 0 0-12.92 6.46 6.46 0 0 0 0 12.92z" fill="#9881F2"/><path d="M17.63 55.67v3.88c0 .51.41.93.93.93h4.18v-5.73h-4.18c-.51 0-.93.41-.93.93v-.01z" fill="#5E53D9"/></svg>