<svg width="90" height="90" fill="none" xmlns="http://www.w3.org/2000/svg"><path d="M21.4 60h47.22c3.29 0 5.96 2.67 5.96 5.96v18.08c0 3.29-2.67 5.96-5.96 5.96H21.39c-3.29 0-5.96-2.67-5.96-5.96V65.96c0-3.29 2.67-5.96 5.96-5.96h.01z" fill="#9D6C3E"/><path d="M61.18 67.5H28.71v8.13h32.47V67.5z" fill="#F7C631"/><path d="m78.7 6.23-.12-2.1H63.7V0H26.31v4.13H11.42l-.12 2.08v.71c0 1.74.17 6.27 2.29 10.81 1.08 2.26 2.7 4.53 5.11 6.22 2.35 1.66 5.43 2.69 9.13 2.74 2.2 5.08 6.58 8.99 11.97 10.55v6.28c-.08 5.7-4.71 10.3-10.44 10.3h-.65V60h32.47v-6.18h-.66c-5.76 0-10.43-4.67-10.43-10.43v-6.12c5.43-1.54 9.87-5.46 12.07-10.58 3.7-.05 6.78-1.08 9.13-2.74 3.63-2.56 5.43-6.32 6.36-9.59.93-3.3 1.04-6.13 1.04-7.43v-.71l.01.01zM21.67 19.72c-2.26-1.57-3.62-4.15-4.36-6.78-.43-1.48-.65-2.83-.74-3.63h9.73v9.97c0 .73.04 1.44.12 2.13-2.04-.23-3.54-.86-4.76-1.7l.01.01zm50.05-4.21c-.78 1.67-1.88 3.14-3.4 4.21-1.2.84-2.72 1.47-4.75 1.7.08-.69.13-1.41.13-2.13V9.32h9.73c-.18 1.47-.62 3.96-1.71 6.2v-.01z" fill="#FED859"/><path d="m78.7 6.23-.12-2.1H63.7V0H26.31v4.13H11.42l-.12 2.08v.71c0 1.74.17 6.27 2.29 10.81 1.08 2.26 2.7 4.53 5.11 6.22 2.35 1.66 5.43 2.69 9.13 2.74 2.2 5.08 6.58 8.99 11.97 10.55v6.28c-.08 5.7-4.71 10.3-10.44 10.3h-.65V60h32.47v-6.18h-.66c-5.76 0-10.43-4.67-10.43-10.43v-6.12c5.43-1.54 9.87-5.46 12.07-10.58 3.7-.05 6.78-1.08 9.13-2.74 3.63-2.56 5.43-6.32 6.36-9.59.93-3.3 1.04-6.13 1.04-7.43v-.71l.01.01zM21.67 19.72c-2.26-1.57-3.62-4.15-4.36-6.78-.43-1.48-.65-2.83-.74-3.63h9.73v9.97c0 .73.04 1.44.12 2.13-2.04-.23-3.54-.86-4.76-1.7l.01.01zm50.05-4.21c-.78 1.67-1.88 3.14-3.4 4.21-1.2.84-2.72 1.47-4.75 1.7.08-.69.13-1.41.13-2.13V9.32h9.73c-.18 1.47-.62 3.96-1.71 6.2v-.01z" fill="#F7C631"/><path d="M39.8 37.25v6.28c-.08 5.7-4.71 10.3-10.44 10.3h-.65v6.18h32.47v-6.18h-.66c-5.76 0-10.43-4.67-10.43-10.43v-6.12l-10.3-.03h.01z" fill="#E3AA24"/><path d="M39.8 39.02v4.5c-.08 5.7-4.71 10.3-10.44 10.3h-.65V60h32.47v-6.18h-.66c-14.76 0-20.73-14.8-20.73-14.8h.01z" fill="#F7C631"/><path d="M62.17 26.7c3.7-.05 6.78-1.08 9.13-2.74 3.63-2.56 5.43-6.32 6.36-9.59.93-3.3 1.04-6.13 1.04-7.43v-.71l-.12-2.1H63.7v5.19h9.73c-.18 1.47-.62 3.96-1.71 6.2-.78 1.67-1.88 3.14-3.4 4.21-1.2.84-2.72 1.47-4.75 1.7l-1.4 5.28v-.01zM26.43 21.42c-2.04-.22-3.55-.85-4.75-1.69-1.52-1.07-2.62-2.54-3.4-4.21-1.09-2.24-1.54-4.73-1.71-6.2h9.73V4.13H11.42l-.12 2.11v.7c0 1.3.11 4.14 1.04 7.43.93 3.27 2.74 7.04 6.37 9.6 2.35 1.65 5.43 2.69 9.13 2.73l-1.4-5.28h-.01z" fill="#E3AA24"/><path d="M27.83 26.7C44.98 26.7 45.01.22 45.01 0h-18.7v19.28c0 .73-.02 1.16.13 2.13.59 3.76 1.4 5.28 1.4 5.28l-.01.01z" fill="#FFF599"/></svg>