<svg width="90" height="90" fill="none" xmlns="http://www.w3.org/2000/svg"><g clip-path="url(#a)"><path d="M8.1 11.25h73.81c4.47 0 8.1 3.63 8.1 8.1v51.3c0 4.47-3.63 8.1-8.1 8.1H8.1c-4.47 0-8.1-3.63-8.1-8.1v-51.3c0-4.47 3.63-8.1 8.1-8.1z" fill="#807B76" opacity=".3"/><path d="M28.12 28.81c0-2.97 2.14-4.25 4.76-2.85l30.77 16.49c2.62 1.41 2.62 3.7 0 5.1L32.88 64.04c-2.63 1.41-4.76.12-4.76-2.85V28.81z" fill="#FA742C"/><path d="M63.66 42.45 32.89 25.96c-2.63-1.4-4.76-.12-4.76 2.85v25.26c6.96-13.6 18.49-17.22 35.54-11.61l-.01-.01z" fill="#FFA459"/></g><defs><clipPath id="a"><path fill="#fff" d="M0 0h90v90H0z"/></clipPath></defs></svg>