<svg width="90" height="90" fill="none" xmlns="http://www.w3.org/2000/svg"><path d="M14.64 11.94h60.72c4.09 0 7.42 3.32 7.42 7.42v60.72c0 4.09-3.32 7.42-7.42 7.42H14.64c-4.09 0-7.42-3.32-7.42-7.42V19.36c0-4.09 3.32-7.42 7.42-7.42z" fill="#9D6C3E"/><path d="M75.91 18.81H14.09v61.82h61.82V18.81z" fill="#E8E6E1"/><path d="M59.57 32.24 38.5 53.29l-8.07-8.06-8.37 8.37L38.5 70.04l29.44-29.43-8.37-8.37z" fill="#FA412D"/><path d="M53.5 14.7v-3.87c-.03-4.6-3.78-8.33-8.38-8.33-4.6 0-8.35 3.73-8.38 8.33v3.87S29.57 15.95 23.95 25h42.34C60.67 15.95 53.5 14.7 53.5 14.7zm-8.38-6.77c1.62 0 2.94 1.32 2.94 2.94 0 1.62-1.32 2.94-2.94 2.94-1.62 0-2.94-1.32-2.94-2.94 0-1.62 1.32-2.94 2.94-2.94z" fill="#D1CCC5"/></svg>