<svg width="90" height="90" fill="none" xmlns="http://www.w3.org/2000/svg"><g clip-path="url(#a)"><path d="M41.33 19.92c-.27-4.43-3.93-7.94-8.43-7.94s-8.45 3.78-8.45 8.45 3.78 8.45 8.45 8.45c.39 0 .77-.04 1.14-.09l7.26 14.16v.06l.03-.03.03-.03-.03-23.04v.01zM48.67 19.92c.27-4.43 3.93-7.94 8.43-7.94 4.67 0 8.45 3.78 8.45 8.45s-3.78 8.45-8.45 8.45c-.39 0-.77-.04-1.14-.09L48.7 42.95v.06l-.03-.03-.03-.03.03-23.04v.01z" fill="#807B76"/><path d="M41.33 31.65c-.24-7.66-6.52-13.81-14.24-13.81-4.85 0-9.13 2.42-11.7 6.12L2.63 47.24l16.77 2.37c1.82 1.17 3.92 1.94 6.18 2.18l15.73 5.54v.02h.05v-.02l-.02-25.68h-.01z" fill="#B3ACA8"/><path d="m41.35 57.32-15.77-5.54c-.57-.06-1.13-.16-1.68-.28l8.02-11.56s5.29 1.04 6.73-6.71l2.66 5.73.05 18.35-.01.01z" fill="#807B76"/><path d="M48.67 31.65c.24-7.66 6.52-13.81 14.24-13.81 4.85 0 9.13 2.42 11.7 6.12l12.76 23.29-16.77 2.37a14.177 14.177 0 0 1-6.18 2.18l-15.73 5.54v.02h-.05v-.02l.02-25.68.01-.01z" fill="#B3ACA8"/><path d="m48.65 57.32 15.77-5.54c.57-.06 1.13-.16 1.68-.28l-8.02-11.56s-5.29 1.04-6.73-6.71l-2.66 5.73-.05 18.35.01.01z" fill="#807B76"/><path d="M69.32 78.02C80.741 78.02 90 68.761 90 57.34s-9.259-20.68-20.68-20.68-20.68 9.259-20.68 20.68 9.259 20.68 20.68 20.68z" fill="#E8E6E1"/><path d="M69.32 72.39c8.312 0 15.05-6.738 15.05-15.05 0-8.312-6.738-15.05-15.05-15.05-8.312 0-15.05 6.738-15.05 15.05 0 8.312 6.738 15.05 15.05 15.05z" fill="#807B76"/><path d="M69.32 42.29c3.15 0 6.08.97 8.49 2.63a14.95 14.95 0 0 1 2.63 8.49c0 8.31-6.74 15.05-15.05 15.05-3.15 0-6.08-.97-8.49-2.63a14.95 14.95 0 0 1-2.63-8.49c0-8.31 6.74-15.05 15.05-15.05z" fill="#A5D8E8"/><path d="M69.32 42.29c1.68 0 3.29.28 4.8.78.17.89.26 1.81.26 2.75 0 8.14-6.6 14.75-14.75 14.75-1.83 0-3.58-.34-5.19-.94-.11-.74-.17-1.51-.17-2.28 0-8.31 6.74-15.05 15.05-15.05v-.01z" fill="#DBFBFF"/><path d="M41.35 57.34c0-11.42-9.26-20.68-20.68-20.68-7.75 0-14.51 4.27-18.05 10.58A20.635 20.635 0 0 0 0 57.34c0 11.42 9.26 20.68 20.68 20.68s20.68-9.26 20.68-20.68h-.01z" fill="#E8E6E1"/><path d="M20.68 72.39c8.312 0 15.05-6.738 15.05-15.05 0-8.312-6.738-15.05-15.05-15.05-8.312 0-15.05 6.738-15.05 15.05 0 8.312 6.738 15.05 15.05 15.05z" fill="#807B76"/><path d="M20.68 42.29c-3.15 0-6.08.97-8.49 2.63a14.95 14.95 0 0 0-2.63 8.49c0 8.31 6.74 15.05 15.05 15.05 3.15 0 6.08-.97 8.49-2.63a14.95 14.95 0 0 0 2.63-8.49c0-8.31-6.74-15.05-15.05-15.05z" fill="#A5D8E8"/><path d="M20.68 42.29c-1.68 0-3.29.28-4.8.78-.17.89-.26 1.81-.26 2.75 0 8.14 6.6 14.75 14.75 14.75 1.83 0 3.58-.34 5.19-.94.11-.74.17-1.51.17-2.28 0-8.31-6.74-15.05-15.05-15.05v-.01z" fill="#DBFBFF"/><path d="M44.95 49.7a7.86 7.86 0 1 0 0-15.72 7.86 7.86 0 0 0 0 15.72z" fill="#807B76"/><path d="M40 25.99 37.24 40.3h15.44l-2.81-14.31H40z" fill="#807B76"/><path d="M44.95 30.81a4.86 4.86 0 1 0 0-9.72 4.86 4.86 0 0 0 0 9.72z" fill="#807B76"/><path d="M44.95 45.74a3.9 3.9 0 1 0 0-7.8 3.9 3.9 0 0 0 0 7.8z" fill="#4A4743"/></g><defs><clipPath id="a"><path fill="#fff" d="M0 0h90v90H0z"/></clipPath></defs></svg>